<?xml version="1.0" encoding="UTF-8"?>
<svg version="1.1" xmlns="http://www.w3.org/2000/svg" width="512" height="512">
<path d="M0 0 C1.11176102 0.4003093 2.22352203 0.80061859 3.36897278 1.21305847 C7.00567441 2.5258451 10.63554751 3.85651809 14.265625 5.1875 C16.80498785 6.10972549 19.34573789 7.02810067 21.88647461 7.9465332 C28.25777922 10.25224546 34.6231506 12.57394245 40.98724365 14.8994751 C46.10458026 16.76754329 51.22597335 18.6243576 56.34765625 20.48046875 C63.49866475 23.07370693 70.64683052 25.67462272 77.79296875 28.28125 C87.93634819 31.98048198 98.08788669 35.65694704 108.24179077 39.32717896 C111.14151548 40.37532188 114.04111051 41.42382282 116.94067383 42.47241211 C125.51883984 45.5743808 134.09732773 48.67545473 142.67675781 51.77392578 C156.28622176 56.68936527 169.89321314 61.61142057 183.49368286 66.55171204 C189.70489448 68.80740472 195.91915373 71.05417769 202.13812256 73.28839111 C205.44016128 74.47722937 208.73854566 75.67592369 212.0357666 76.87805176 C213.49764367 77.40871946 214.96106338 77.93516078 216.42614746 78.45690918 C231.61540441 83.87069768 231.61540441 83.87069768 235.8671875 90.19921875 C237.5185364 95.26269217 237.39767118 101.14522142 235.140625 106 C228.98186162 114.98676697 212.4921107 118.2367625 202.515625 121.1875 C201.855625 121.1875 201.195625 121.1875 200.515625 121.1875 C199.70164666 138.09638483 199.13310731 154.99504753 198.83428955 171.92045593 C198.69006931 179.7857612 198.47308916 187.63502753 198.07080078 195.49169922 C195.20660743 236.72457866 195.20660743 236.72457866 213.16696167 272.23509216 C220.66449644 279.92475834 228.88550054 286.73149575 237.55078125 293.05883789 C241.679703 296.14756856 244.0958714 298.82841966 245.01953125 304.01953125 C245.03886719 305.00308594 245.05820312 305.98664063 245.078125 307 C245.12066406 307.97582031 245.16320312 308.95164062 245.20703125 309.95703125 C243.44772114 318.1770847 236.03022208 323.58338234 229.87109375 328.7265625 C209.13103627 345.44823695 209.13103627 345.44823695 199 368.86328125 C198.51186164 376.10735403 198.95677175 383.49939235 200.17681885 390.65901184 C200.76230229 394.48858398 200.56913046 396.08910054 198.68774414 399.54907227 C195.85583275 402.98893586 193.7388195 404.7797685 189.515625 406.1875 C183.89686776 406.5559431 180.35851121 406.37940228 175.515625 403.1875 C172.21361798 399.79377056 170.67935689 396.75590857 169.515625 392.1875 C169.81567383 388.91235352 169.81567383 388.91235352 170.47265625 385.31640625 C171.85326959 374.83690718 172.76671901 363.76800177 166.78912354 354.51495361 C157.91256177 343.03021372 146.75825806 333.2311579 135.77558899 323.8061676 C134.99837997 323.1374614 134.22117096 322.46875519 133.42041016 321.77978516 C132.73725739 321.20362457 132.05410461 320.62746399 131.35025024 320.03384399 C127.25677429 315.91422079 125.81373295 311.95092034 125.515625 306.1875 C126.34459219 298.86495651 131.22876214 294.03268315 136.515625 289.1875 C138.38628693 287.73108519 140.29746241 286.34645083 142.22414398 284.96513367 C154.48195653 276.11126362 167.00730867 265.84167186 170.26123047 250.40136719 C172.79899882 233.68360345 171.98256979 216.49466669 171.26586723 199.65525627 C170.96331822 192.39150499 170.85216751 185.12811611 170.752738 177.85919952 C170.54486707 162.96029158 170.11022878 148.07639337 169.515625 133.1875 C168.52643066 133.55101562 167.53723633 133.91453125 166.51806641 134.2890625 C162.85534988 135.63410145 159.19110033 136.9749195 155.52636719 138.31445312 C153.93902982 138.89532894 152.35211323 139.47735589 150.765625 140.06054688 C148.48807074 140.89754806 146.20904626 141.73042756 143.9296875 142.5625 C143.21817535 142.82498535 142.50666321 143.0874707 141.77359009 143.35791016 C136.74336841 145.1875 136.74336841 145.1875 134.515625 145.1875 C134.52450745 146.4350708 134.53338989 147.6826416 134.5425415 148.96801758 C134.62370918 160.73839079 134.68362986 172.50870705 134.72287369 184.27929688 C134.74372777 190.33035976 134.77200618 196.38119628 134.81738281 202.43212891 C134.86091742 208.27414163 134.8847785 214.11593692 134.89513397 219.95809937 C134.9025116 222.18439149 134.9169184 224.41067203 134.93854523 226.63687134 C134.96767973 229.76077781 134.97157671 232.88379153 134.96972656 236.0078125 C134.98410767 236.92347488 134.99848877 237.83913727 135.01330566 238.782547 C134.96444307 246.43209381 132.76441407 251.88203251 127.640625 257.5625 C92.52166281 290.50062728 38.80734418 299.11011321 -7.484375 300.1875 C-8.77698242 300.22037109 -8.77698242 300.22037109 -10.09570312 300.25390625 C-60.95404555 301.36354281 -121.98374037 295.63410042 -161.37890625 259.53515625 C-170.15959443 250.98058022 -170.15959443 250.98058022 -170.73047066 246.07110214 C-170.72770528 244.92623526 -170.72770528 244.92623526 -170.72488403 243.75823975 C-170.72763336 242.87766907 -170.73038269 241.99709839 -170.73321533 241.08984375 C-170.7224295 239.6527002 -170.7224295 239.6527002 -170.71142578 238.18652344 C-170.71171783 237.17156799 -170.71200989 236.15661255 -170.71231079 235.11090088 C-170.71091746 231.75613862 -170.69535589 228.40159846 -170.6796875 225.046875 C-170.67595739 222.72088746 -170.67311041 220.39489836 -170.67111206 218.06890869 C-170.66347549 211.94669253 -170.6438267 205.82457125 -170.6217041 199.70239258 C-170.60124625 193.45525394 -170.59211047 187.20809998 -170.58203125 180.9609375 C-170.56058091 168.70308331 -170.52644459 156.44529955 -170.484375 144.1875 C-171.47716351 143.89429996 -171.47716351 143.89429996 -172.49000835 143.5951767 C-176.91612064 142.27941512 -181.32226898 140.96422262 -185.6574707 139.36914062 C-186.54508087 139.04412567 -187.43269104 138.71911072 -188.34719849 138.38424683 C-189.27547455 138.04088287 -190.20375061 137.69751892 -191.16015625 137.34375 C-192.65432571 136.79498703 -192.65432571 136.79498703 -194.17868042 136.23513794 C-197.38600029 135.05596752 -200.59157872 133.87215907 -203.796875 132.6875 C-206.00496369 131.87288276 -208.21305289 131.05826688 -210.42114258 130.24365234 C-215.80789687 128.25475878 -221.19268487 126.26059963 -226.57678223 124.26452637 C-229.22064392 123.28519089 -231.8654377 122.30843794 -234.51074219 121.33300781 C-238.56825276 119.8362294 -242.62070412 118.32635435 -246.671875 116.8125 C-247.81374268 116.39162109 -248.95561035 115.97074219 -250.13208008 115.53710938 C-256.29595941 113.21375317 -261.84395066 111.09196678 -266.359375 106.125 C-268.44454021 100.68040195 -268.48486631 94.66239956 -266.296875 89.25 C-262.38645546 84.80021225 -258.36700366 82.50947897 -252.828125 80.5078125 C-251.82415176 80.14055054 -251.82415176 80.14055054 -250.79989624 79.76586914 C-248.53131009 78.93879944 -246.25794148 78.12576984 -243.984375 77.3125 C-242.33060056 76.71287982 -240.67712765 76.11242748 -239.02392578 75.51123047 C-234.26399941 73.78352163 -229.49939918 72.06901629 -224.73400879 70.35644531 C-219.43570579 68.45056088 -214.14033932 66.53655012 -208.84460831 64.62353325 C-200.35659977 61.55763058 -191.86756069 58.49459822 -183.37646484 55.43725586 C-168.1118467 49.94091349 -152.85376486 44.42725462 -137.609375 38.875 C-117.94100856 31.71261523 -98.25918467 24.58784837 -78.57348633 17.47325134 C-71.10684754 14.77456737 -63.64116978 12.07323417 -56.17578125 9.37109375 C-52.91672453 8.19162087 -49.65765822 7.01217449 -46.39859009 5.83273315 C-44.30135875 5.07367639 -42.20416993 4.31450217 -40.10702515 3.5552063 C-37.20689039 2.50521226 -34.3065889 1.45568002 -31.40625 0.40625 C-30.54298599 0.09356674 -29.67972198 -0.21911652 -28.79029846 -0.54127502 C-27.99937302 -0.8273613 -27.20844757 -1.11344757 -26.39355469 -1.40820312 C-25.7070282 -1.65671021 -25.02050171 -1.90521729 -24.31317139 -2.16125488 C-15.24596712 -5.39013949 -8.71936165 -3.22964089 0 0 Z M-20.65625 29.59838867 C-21.53233917 29.91185242 -22.40842834 30.22531616 -23.31106567 30.54827881 C-24.27575775 30.89715149 -25.24044983 31.24602417 -26.234375 31.60546875 C-27.24925995 31.96972961 -28.2641449 32.33399048 -29.30978394 32.70928955 C-32.70246574 33.9280165 -36.09343374 35.15143933 -39.484375 36.375 C-41.87899696 37.23660979 -44.27369227 38.09801573 -46.66845703 38.95922852 C-53.64356322 41.4691634 -60.61657112 43.984876 -67.58876038 46.50289917 C-69.44874774 47.17463322 -71.30878501 47.84622909 -73.16882324 48.51782227 C-90.05104189 54.6141 -106.92691528 60.72780582 -123.79956055 66.8505249 C-127.53613947 68.2062819 -131.2729301 69.56145441 -135.00976562 70.91650391 C-141.19866211 73.16081555 -147.38691622 75.406893 -153.57476807 77.65408325 C-155.87911268 78.49079141 -158.18359036 79.32713325 -160.48822021 80.16305542 C-175.85800501 85.73890213 -191.18723651 91.41525909 -206.484375 97.1875 C-204.32635703 99.34551797 -203.00072571 99.88235519 -200.16625977 100.90478516 C-198.81038002 101.3986824 -198.81038002 101.3986824 -197.42710876 101.90255737 C-196.43667068 102.25697906 -195.4462326 102.61140076 -194.42578125 102.9765625 C-193.39244156 103.35152863 -192.35910187 103.72649475 -191.29444885 104.11282349 C-189.05582851 104.92457337 -186.81630219 105.73382808 -184.57598877 106.54089355 C-178.58168086 108.70075608 -172.59416804 110.8793336 -166.60546875 113.0546875 C-165.39443481 113.49397583 -164.18340088 113.93326416 -162.93566895 114.38586426 C-152.47349048 118.18313243 -142.03602285 122.04390567 -131.609375 125.9375 C-129.04560853 126.89401663 -126.48176682 127.8503314 -123.91792297 128.80664062 C-122.11864269 129.47777052 -120.31939808 130.14899608 -118.52018738 130.8203125 C-105.52447799 135.66740056 -92.51850481 140.48689715 -79.51381683 145.30982971 C-77.52808663 146.04628843 -75.54238749 146.78283082 -73.55670166 147.51940918 C-72.92017733 147.75550652 -72.28365299 147.99160385 -71.62784004 148.23485565 C-70.35551195 148.70684934 -69.08322756 149.17896086 -67.81098747 149.65119171 C-64.69991096 150.80574047 -61.58785231 151.95751637 -58.47433472 153.10546875 C-52.88596701 155.16817395 -47.30561921 157.24575201 -41.75328064 159.40349388 C-39.88078629 160.13025903 -38.00547398 160.84975024 -36.13012695 161.56912231 C-33.80591218 162.46176442 -31.48637154 163.36671127 -29.17260742 164.28610229 C-20.05820647 167.76257759 -14.30783687 166.73692632 -5.42578125 163.3984375 C-4.63454865 163.10778412 -3.84331604 162.81713074 -3.02810669 162.51766968 C-1.28990031 161.87845078 0.44717679 161.23615476 2.18325806 160.59118652 C7.09339377 158.76763668 12.01231376 156.96798161 16.9296875 155.1640625 C18.00054092 154.77049561 19.07139435 154.37692871 20.17469788 153.97143555 C28.67938859 150.84930091 37.19925667 147.77060008 45.7265625 144.7109375 C46.70482121 144.35992981 46.70482121 144.35992981 47.70284271 144.00183105 C51.05178493 142.80045 54.40095755 141.59971264 57.75024414 140.39929199 C82.19536225 131.637486 106.6173359 122.81435971 131.01489258 113.92089844 C133.10756799 113.15815746 135.2002597 112.39546118 137.29296875 111.6328125 C138.29054703 111.26925659 139.28812531 110.90570068 140.31593323 110.53112793 C151.70430571 106.38463521 163.10920328 102.2840324 174.515625 98.1875 C172.96274177 95.08173353 169.94160324 94.71021638 166.8203125 93.6328125 C166.10746094 93.37994476 165.39460938 93.12707703 164.66015625 92.86654663 C163.08311146 92.30789821 161.50489878 91.75253909 159.92572021 91.19995117 C155.4711864 89.64056941 151.02552824 88.05613973 146.578125 86.4765625 C145.61421844 86.13502136 144.65031189 85.79348022 143.65719604 85.44158936 C133.02003528 81.66843891 122.41687526 77.80285911 111.81359863 73.93572998 C88.48994061 65.4304675 65.1433608 56.98983281 41.78551769 48.57903481 C18.7686484 40.2907608 18.7686484 40.2907608 7.40234375 36.1328125 C6.59740479 35.83860413 5.79246582 35.54439575 4.96313477 35.24127197 C1.41337917 33.94329807 -2.13507618 32.64197689 -5.68115234 31.33398438 C-6.84727051 30.90666016 -8.01338867 30.47933594 -9.21484375 30.0390625 C-10.19864014 29.67635254 -11.18243652 29.31364258 -12.19604492 28.93994141 C-15.60267056 27.81978562 -17.35855221 28.41201488 -20.65625 29.59838867 Z M-139.484375 156.1875 C-139.7165112 166.60994152 -139.89397403 177.03176416 -140.00249672 187.45626831 C-140.05459554 192.29746066 -140.12520092 197.13687933 -140.23876953 201.97705078 C-140.3477724 206.65212292 -140.40728614 211.32549435 -140.43314743 216.0017395 C-140.45156497 217.78169529 -140.48753471 219.56156227 -140.54167557 221.34078979 C-141.0992718 231.24341595 -141.0992718 231.24341595 -137.31930542 240.03027344 C-134.79202482 242.08781593 -132.36314152 243.67308245 -129.484375 245.1875 C-128.85043823 245.58420898 -128.21650146 245.98091797 -127.56335449 246.38964844 C-103.90108031 260.87420678 -73.6855097 265.80532323 -46.484375 268.1875 C-45.25976562 268.29835938 -44.03515625 268.40921875 -42.7734375 268.5234375 C4.4284931 272.12440953 59.77064436 268.44935861 99.515625 240.1875 C100.223703 239.81203537 100.93178101 239.43657074 101.66131592 239.04972839 C104.01466833 236.68632537 103.9872236 234.92624952 104.01330566 231.6738739 C103.99892456 230.92724991 103.98454346 230.18062592 103.96972656 229.41137695 C103.97031067 228.62089966 103.97089478 227.83042236 103.97149658 227.01599121 C103.96870893 224.40214177 103.93758598 221.78943154 103.90625 219.17578125 C103.89879 217.36403527 103.89309593 215.55228122 103.88909912 213.74052429 C103.87382373 208.97111752 103.83452563 204.20219771 103.7902832 199.4329834 C103.74937149 194.56671741 103.73109688 189.70037276 103.7109375 184.83398438 C103.66803313 175.28494225 103.59975884 165.73626161 103.515625 156.1875 C84.81183403 162.77200907 66.11487476 169.37306153 47.46264648 176.1026001 C44.32171974 177.23487017 41.17950588 178.36351512 38.03710938 179.49169922 C28.44621411 182.9388734 18.86778321 186.41063349 9.33203125 190.0078125 C7.08748126 190.84827647 4.84260493 191.6878638 2.59768677 192.52734375 C0.58886029 193.2848826 -1.41261042 194.05979869 -3.41430664 194.8359375 C-18.55929352 200.50347476 -27.68255045 197.15348282 -42.234375 191.625 C-44.12165357 190.92202622 -46.00952998 190.22065573 -47.89794922 189.52075195 C-52.08022528 187.9674434 -56.25861421 186.40420337 -60.43457031 184.83398438 C-71.72567547 180.59033136 -83.03642535 176.39933912 -94.345047 172.2026453 C-98.49058155 170.66365577 -102.63427204 169.11982816 -106.77638054 167.57164192 C-109.39442179 166.59354116 -112.01338132 165.61791511 -114.63249588 164.64269257 C-116.42999576 163.97240988 -118.22629669 163.29891469 -120.02255249 162.62530518 C-126.44937922 160.23494856 -132.8847299 158.05155965 -139.484375 156.1875 Z M182.45263672 288.0234375 C181.62521973 288.86132812 180.79780273 289.69921875 179.9453125 290.5625 C179.04941406 291.46484375 178.15351563 292.3671875 177.23046875 293.296875 C176.28374601 294.2603104 175.33713284 295.22385348 174.390625 296.1875 C173.43665698 297.15149617 172.48223548 298.11504381 171.52734375 299.078125 C169.18559325 301.44352955 166.84861997 303.81346452 164.515625 306.1875 C166.00216006 309.65379835 167.97284851 311.87772036 170.6484375 314.515625 C171.45410156 315.31484375 172.25976562 316.1140625 173.08984375 316.9375 C173.93160156 317.7625 174.77335937 318.5875 175.640625 319.4375 C176.91486328 320.69820313 176.91486328 320.69820313 178.21484375 321.984375 C180.31067423 324.05665683 182.41103213 326.12412393 184.515625 328.1875 C187.98192335 326.70096494 190.20584536 324.73027649 192.84375 322.0546875 C193.64296875 321.24902344 194.4421875 320.44335938 195.265625 319.61328125 C196.090625 318.77152344 196.915625 317.92976563 197.765625 317.0625 C198.60609375 316.21300781 199.4465625 315.36351562 200.3125 314.48828125 C202.38478183 312.39245077 204.45224893 310.29209287 206.515625 308.1875 C205.03333049 304.75144819 203.0861076 302.50048409 200.453125 299.859375 C199.65648437 299.06015625 198.85984375 298.2609375 198.0390625 297.4375 C197.20632813 296.6125 196.37359375 295.7875 195.515625 294.9375 C194.68289063 294.09703125 193.85015625 293.2565625 192.9921875 292.390625 C192.19554687 291.5965625 191.39890625 290.8025 190.578125 289.984375 C189.84722656 289.25573242 189.11632812 288.52708984 188.36328125 287.77636719 C185.67860248 285.46771372 185.087244 285.67879291 182.45263672 288.0234375 Z " fill="#000000" transform="translate(267.484375,54.8125)"/>
</svg>
