<?xml version="1.0" encoding="UTF-8"?>
<svg version="1.1" xmlns="http://www.w3.org/2000/svg" width="512" height="512">
<path d="M0 0 C1.57642354 -0.00435486 3.15284497 -0.00954058 4.72926331 -0.01548767 C8.98563073 -0.02880673 13.24190898 -0.02946421 17.49829316 -0.02692437 C21.06402277 -0.02584967 24.6297347 -0.03075083 28.1954605 -0.03552979 C36.61502115 -0.0466008 45.03453717 -0.04707619 53.45410156 -0.04101562 C62.11100244 -0.03497957 70.76774064 -0.04728304 79.42461377 -0.06858569 C86.88314143 -0.08625785 94.34161756 -0.09219417 101.80016536 -0.08894795 C106.24327981 -0.08714363 110.68627824 -0.08968546 115.12937355 -0.10366249 C119.3114845 -0.11632775 123.49334375 -0.11421544 127.67545128 -0.1012516 C129.20031701 -0.09890494 130.72520095 -0.10155097 132.25004578 -0.10987473 C147.65823977 -0.18784459 160.78752052 1.6023503 172.48510742 12.38012695 C182.11428697 22.5492605 185.57128563 33.93011486 185.39526367 47.68481445 C185.39101883 48.96418129 185.39101883 48.96418129 185.38668823 50.26939392 C185.37560948 52.95879938 185.35052911 55.64785562 185.32495117 58.3371582 C185.31490542 60.17504397 185.30578238 62.01293503 185.29760742 63.85083008 C185.27571068 68.32557134 185.24126791 72.80005583 185.19995117 77.2746582 C185.78948798 77.27097103 186.37902479 77.26728386 186.98642635 77.26348495 C201.35995744 77.17498029 215.73346412 77.1088741 230.1072073 77.06740952 C237.05838776 77.04682229 244.00938585 77.01877579 250.96044922 76.97290039 C257.67130598 76.92863158 264.38193435 76.9055058 271.09294319 76.89514923 C273.65054362 76.88777067 276.20813395 76.8733621 278.76565361 76.85173798 C282.35392339 76.82261121 285.94141577 76.81870625 289.52978516 76.82055664 C290.58211334 76.80617554 291.63444153 76.79179443 292.71865845 76.77697754 C300.93251422 76.82267214 306.62154063 78.93492823 313.44995117 83.3996582 C322.60708545 92.97302586 321.91806122 103.52646461 321.84692383 115.9777832 C321.85370681 117.9728678 321.86261376 119.96794613 321.87347412 121.9630127 C321.89619287 127.3597714 321.8874617 132.7560501 321.87157869 138.15281677 C321.85888124 143.81225842 321.87067048 149.47166018 321.87850952 155.13110352 C321.88759487 164.63345688 321.87564734 174.13561566 321.85180664 183.63793945 C321.82459765 194.60917887 321.83341259 205.57995363 321.86093867 216.55118179 C321.88366041 225.98674611 321.8868148 235.4221709 321.87374532 244.85775375 C321.86596771 250.48626059 321.86486278 256.11454934 321.88142776 261.74304199 C321.89591779 267.03578846 321.88576778 272.3279384 321.85695648 277.62062073 C321.8503699 279.55793774 321.85220156 281.49530534 321.86326981 283.43260193 C321.97036318 304.08864692 321.97036318 304.08864692 314.38607216 312.21917725 C311.07977584 315.39185852 308.71301463 316.45363918 304.19995117 317.2746582 C304.20363834 317.91665413 304.20732552 318.55865005 304.21112442 319.2201004 C304.29957117 334.86178022 304.36570716 350.5033727 304.40719986 366.14524078 C304.42780024 373.7096303 304.45587223 381.2738526 304.50170898 388.83813477 C304.54165444 395.43335698 304.56740233 402.02845806 304.57630515 408.62379789 C304.58150696 412.1140617 304.59367955 415.60397902 304.6228714 419.09413147 C304.6552417 422.99616857 304.65590564 426.89787078 304.65405273 430.80004883 C304.67562439 432.5241951 304.67562439 432.5241951 304.69763184 434.28317261 C304.65236488 443.10152374 302.62074761 449.85386177 296.19995117 456.2746582 C289.28165687 460.78881326 284.20202232 462.3976451 275.92651939 462.40887928 C275.18876906 462.41123151 274.45101872 462.41358374 273.69091231 462.41600725 C271.20525293 462.42269324 268.71964588 462.42223915 266.23397827 462.42182922 C264.43923921 462.4251281 262.64450089 462.42885371 260.84976351 462.4329707 C255.90701975 462.44299613 250.96428813 462.44670837 246.02153563 462.44936001 C240.69484296 462.45326144 235.36815992 462.46283987 230.04147339 462.47157288 C217.17238528 462.49134152 204.30329638 462.50140385 191.43419689 462.51030067 C185.37562155 462.51468278 179.31704709 462.52004977 173.25847244 462.52528954 C153.12149169 462.54230196 132.98451148 462.55679661 112.84752464 462.56403828 C107.62108739 462.56594821 102.39465013 462.56786853 97.16821289 462.56982422 C95.86918996 462.57030796 94.57016703 462.5707917 93.23177977 462.5712901 C72.18375238 462.57959218 51.13578179 462.60493206 30.08777921 462.6374049 C8.48402607 462.67046375 -13.1196982 462.68848596 -34.72347677 462.69168252 C-46.85554932 462.69384866 -58.98753903 462.7026127 -71.11958694 462.72814369 C-81.45079116 462.74983459 -91.78189241 462.757909 -102.11311682 462.74817691 C-107.38420755 462.74362762 -112.65508578 462.74555517 -117.92614746 462.76493835 C-122.75376914 462.78253756 -127.58102277 462.78159853 -132.40864818 462.76604106 C-134.1529794 462.76366008 -135.8973359 462.76801394 -137.64162846 462.77986971 C-148.09549629 462.84650938 -156.52632775 462.17830688 -165.61254883 456.5246582 C-170.7687707 451.22111571 -173.92772421 445.58841742 -173.92030334 438.13044739 C-173.92167801 437.06613998 -173.92305267 436.00183258 -173.92446899 434.90527344 C-173.92087372 433.73786621 -173.91727844 432.57045898 -173.91357422 431.36767578 C-173.91372025 430.13828781 -173.91386627 428.90889984 -173.91401672 427.64225769 C-173.91343899 424.27061809 -173.90841995 420.89903954 -173.90144277 417.52741075 C-173.89519609 414.00400869 -173.89460439 410.48060584 -173.89341736 406.9571991 C-173.89030793 400.28492291 -173.88209975 393.61266308 -173.87206787 386.9403941 C-173.8608947 379.34434073 -173.85539324 371.74828659 -173.85037243 364.15222704 C-173.83991683 348.52636128 -173.82232488 332.90051185 -173.80004883 317.2746582 C-174.58702148 317.1314917 -175.37399414 316.9883252 -176.18481445 316.84082031 C-181.12986274 315.77028568 -184.20234707 312.35853505 -187.21285057 308.4319458 C-192.33756462 299.7315648 -191.50282451 290.33884738 -191.44702148 280.5715332 C-191.45380447 278.57644861 -191.46271141 276.58137028 -191.47357178 274.58630371 C-191.49629053 269.18954501 -191.48755935 263.79326631 -191.47167635 258.39649963 C-191.4589789 252.73705798 -191.47076813 247.07765623 -191.47860718 241.41821289 C-191.48769253 231.91585953 -191.47574499 222.41370075 -191.4519043 212.91137695 C-191.4246953 201.94013754 -191.43351024 190.96936278 -191.46103632 179.99813461 C-191.48375806 170.56257029 -191.48691245 161.1271455 -191.47384298 151.69156265 C-191.46606537 146.06305581 -191.46496044 140.43476707 -191.48152542 134.80627441 C-191.49601545 129.51352794 -191.48586544 124.22137801 -191.45705414 118.92869568 C-191.45046755 116.99137867 -191.45229922 115.05401107 -191.46336746 113.11671448 C-191.56984678 92.57910843 -191.56984678 92.57910843 -184.07406044 84.38873291 C-176.96588581 77.43708889 -168.69248879 76.83756353 -159.2434082 76.93408203 C-157.54453461 76.93342491 -157.54453461 76.93342491 -155.81134033 76.93275452 C-152.08864772 76.93483518 -148.36641223 76.95813291 -144.64379883 76.98168945 C-142.05448655 76.98728795 -139.46517109 76.99155685 -136.87585449 76.99455261 C-130.77032237 77.0048148 -124.66497732 77.02842989 -118.55951548 77.05860108 C-111.60422533 77.09222027 -104.64892712 77.10864992 -97.69357586 77.12368739 C-83.39564648 77.15498192 -69.09785344 77.20769526 -54.80004883 77.2746582 C-54.8236145 75.59678223 -54.8236145 75.59678223 -54.84765625 73.88500977 C-54.90251933 69.68049502 -54.93660107 65.47601099 -54.96484375 61.27124023 C-54.97980331 59.46161555 -55.0001784 57.65202631 -55.02636719 55.8425293 C-55.25745736 39.44872059 -54.33886721 25.64524739 -42.69458008 12.9855957 C-30.15452784 1.13358173 -16.53537368 -0.03035841 0 0 Z M-31.37890625 27.21313477 C-38.13600236 37.01504501 -37.2804017 48.11510613 -37.05004883 59.4621582 C-37.02994422 61.19455933 -37.01170048 62.9269831 -36.99536133 64.65942383 C-36.95513075 68.86553057 -36.87679697 73.06843359 -36.80004883 77.2746582 C-31.52004883 77.2746582 -26.24004883 77.2746582 -20.80004883 77.2746582 C-20.75106445 74.72231445 -20.70208008 72.1699707 -20.65161133 69.5402832 C-20.59758032 67.06463833 -20.5402812 64.58908914 -20.48266602 62.11352539 C-20.44441556 60.3948481 -20.40955579 58.67609182 -20.37817383 56.95727539 C-20.33243755 54.4846578 -20.27445799 52.01258207 -20.21411133 49.5402832 C-20.19678452 48.39006683 -20.19678452 48.39006683 -20.17910767 47.21661377 C-19.98007237 39.99989446 -19.98007237 39.99989446 -17.80004883 37.2746582 C-13.8824003 35.32077474 -10.65774305 35.02356847 -6.31005859 35.02069092 C-4.34167526 35.01223145 -4.34167526 35.01223145 -2.33352661 35.00360107 C-0.88616888 35.00748938 0.56118831 35.0115857 2.00854492 35.01586914 C3.5380978 35.01315805 5.06764938 35.00959645 6.59719849 35.00524902 C10.74589875 34.9961368 14.89449946 34.99966446 19.04320145 35.00600719 C23.38638831 35.01107321 27.7295667 35.00637406 32.07275391 35.00323486 C39.36614511 34.99959698 46.6594958 35.00438966 53.95288086 35.01391602 C62.38315929 35.02480023 70.81334097 35.02127452 79.24361706 35.0102632 C86.48365958 35.00118528 93.72367299 34.99990753 100.96371937 35.00514054 C105.28701679 35.00825746 109.61026874 35.00867722 113.93356323 35.00206757 C117.99817302 34.99628739 122.06265815 35.0003033 126.12725449 35.01185608 C127.61838448 35.01449907 129.10952498 35.01374373 130.60065079 35.00933075 C132.63708368 35.0038599 134.67353951 35.01193904 136.70996094 35.02069092 C137.84925552 35.02144497 138.98855011 35.02219902 140.16236877 35.02297592 C143.25512266 35.2792295 145.43296314 35.89465381 148.19995117 37.2746582 C151.00468379 40.78084007 150.54933905 45.24694855 150.61401367 49.5402832 C150.6430629 50.73037994 150.6430629 50.73037994 150.67269897 51.94451904 C150.73233479 54.47112377 150.7788156 56.99777445 150.82495117 59.5246582 C150.86314572 61.24082357 150.90219832 62.95697008 150.94213867 64.6730957 C151.03963394 68.87351669 151.11932757 73.07374402 151.19995117 77.2746582 C156.47995117 77.2746582 161.75995117 77.2746582 167.19995117 77.2746582 C167.29243984 72.20576514 167.37186986 67.13986952 167.41967773 62.07080078 C167.43963266 60.35129811 167.46680675 58.63186188 167.50170898 56.91259766 C167.90901181 39.98298361 167.90901181 39.98298361 160.13745117 25.3371582 C151.26336196 17.76491405 140.53360164 17.69167729 129.43823242 17.75708008 C127.87811635 17.75164878 126.31800542 17.74452051 124.75790405 17.73583984 C120.55120963 17.71772307 116.34491096 17.72462538 112.1382103 17.73735619 C107.71778108 17.74754467 103.2973838 17.73807437 98.87695312 17.73181152 C91.4562375 17.72455204 84.03568157 17.73407802 76.61499023 17.75317383 C68.05850456 17.77493933 59.50240025 17.76788675 50.94592381 17.74586821 C43.57485746 17.72766558 36.20390534 17.72517956 28.83282375 17.73562288 C24.44118952 17.74183118 20.04973403 17.74276737 15.65811157 17.72947693 C11.52760762 17.71784791 7.3975912 17.72607143 3.26713943 17.74905396 C1.75918 17.75430367 0.25117892 17.75289202 -1.25676346 17.7440033 C-12.32849254 17.6848003 -23.60503307 18.32804752 -31.37890625 27.21313477 Z M-2.80004883 52.2746582 C-2.80004883 60.5246582 -2.80004883 68.7746582 -2.80004883 77.2746582 C42.07995117 77.2746582 86.95995117 77.2746582 133.19995117 77.2746582 C133.19995117 69.0246582 133.19995117 60.7746582 133.19995117 52.2746582 C88.31995117 52.2746582 43.43995117 52.2746582 -2.80004883 52.2746582 Z M-172.80004883 100.2746582 C-173.28882924 103.14726868 -173.4696422 105.42398993 -173.42150879 108.28993225 C-173.42789761 109.09175837 -173.43428643 109.8935845 -173.44086885 110.71970838 C-173.45611816 113.40398022 -173.4356589 116.08677588 -173.4152832 118.77099609 C-173.4187844 120.69625843 -173.42444296 122.62151788 -173.43209839 124.54676819 C-173.44635523 129.7740386 -173.42927646 135.00078356 -173.40581322 140.22800374 C-173.38572104 145.69541186 -173.39158288 151.16279781 -173.3939209 156.63023376 C-173.39386731 165.81103189 -173.37410143 174.99162428 -173.34204102 184.17236328 C-173.30513673 194.7919153 -173.29636684 205.41119788 -173.30333853 216.03080565 C-173.3096397 226.241297 -173.29889709 236.45169581 -173.27937317 246.6621685 C-173.27119093 251.0101802 -173.26849113 255.35814465 -173.27006531 259.70616341 C-173.27094308 264.82388759 -173.25675708 269.941355 -173.23083878 275.05901146 C-173.22366577 276.93917725 -173.22159879 278.81937034 -173.22495651 280.69954681 C-173.22866052 283.26210072 -173.21396183 285.82390075 -173.19445801 288.3863678 C-173.19978593 289.1339317 -173.20511386 289.8814956 -173.21060324 290.65171295 C-173.17140259 293.62802592 -172.94883081 295.95547924 -171.68413925 298.66859627 C-169.01169613 300.94667651 -166.70935424 301.2571932 -163.26019287 301.85993958 C-162.2698675 302.03744349 -162.2698675 302.03744349 -161.25953555 302.21853334 C-159.10953752 302.59414914 -156.95667495 302.93929156 -154.80004883 303.2746582 C-154.09652566 303.38448147 -153.39300249 303.49430473 -152.66816044 303.60745597 C-147.26611585 304.43503517 -141.85307683 305.1755801 -136.43774414 305.91015625 C-134.64726493 306.15651186 -132.85684085 306.40326843 -131.06646729 306.65039062 C-126.25382663 307.31347882 -121.44042507 307.9708775 -116.62683964 308.62706733 C-111.57500036 309.31662948 -106.52384371 310.01115835 -101.47259521 310.70503235 C-93.00697704 311.86719083 -84.54088377 313.02583347 -76.07446289 314.18212891 C-66.28353872 315.51934103 -56.49326076 316.86120232 -46.70333791 318.20572442 C-36.26338261 319.63949174 -25.82300691 321.07017807 -15.38248348 322.49980187 C-12.37640656 322.91161906 -9.37040509 323.32398335 -6.36441803 323.73645592 C-1.65321945 324.38273744 3.05825934 325.02693659 7.76996613 325.66950226 C9.50070112 325.90584988 11.23134236 326.14288514 12.96188354 326.38064766 C15.31790479 326.70422101 17.67425083 327.02531412 20.03070068 327.3457489 C20.71988295 327.44097625 21.40906522 327.5362036 22.1191318 327.63431662 C24.84414974 328.00258378 27.44553409 328.2746582 30.19995117 328.2746582 C30.32950195 326.39133789 30.32950195 326.39133789 30.46166992 324.4699707 C32.09023119 303.90656086 32.09023119 303.90656086 39.24682617 297.41918945 C47.26439653 291.59953924 55.4587504 290.92909011 65.07495117 290.9621582 C66.00436523 290.94604492 66.9337793 290.92993164 67.89135742 290.91333008 C76.25321725 290.90749893 84.9770691 292.26372412 91.66870117 297.67700195 C98.71674173 305.03069734 99.13350796 314.36383572 99.87353516 324.0168457 C99.93484116 324.81461426 99.99614716 325.61238281 100.05931091 326.43432617 C100.1057222 327.04163574 100.15213348 327.64894531 100.19995117 328.2746582 C121.46053033 325.83976504 142.65557678 322.95797792 163.85620117 320.0559082 C165.68274096 319.80613268 167.50928417 319.55638216 169.33583069 319.30665588 C177.89772772 318.13578944 186.45934689 316.96291683 195.02061987 315.78749609 C204.84431267 314.43882417 214.66895824 313.09737703 224.49444246 311.76182032 C232.1442695 310.72151903 239.79316976 309.6745769 247.44140959 308.62267065 C251.9886396 307.99742749 256.53621176 307.37500107 261.08479309 306.75965881 C265.34768783 306.18280436 269.60936955 305.59769416 273.8702755 305.0063343 C275.42705717 304.7917051 276.98424543 304.58000024 278.5418644 304.37153435 C290.12352869 302.84429106 290.12352869 302.84429106 301.19995117 299.2746582 C303.66231731 295.581109 303.48785695 292.77971915 303.47410583 288.50662231 C303.47934251 287.70721061 303.48457919 286.9077989 303.48997456 286.08416259 C303.50501658 283.39647167 303.50568063 280.70897042 303.50634766 278.02124023 C303.5139663 276.0978971 303.52239328 274.17455703 303.53157043 272.2512207 C303.55355092 267.01981867 303.56231905 261.7884751 303.56739688 256.55703211 C303.57103613 253.29036289 303.57727391 250.0237091 303.58439827 246.75704575 C303.60890468 235.36561152 303.62194733 223.97422291 303.62548828 212.58276367 C303.62912493 201.95640246 303.65902659 191.33032984 303.70089287 180.70405686 C303.73555581 171.58721075 303.75103603 162.47046047 303.75173432 153.35354888 C303.75252847 147.90558319 303.76133053 142.45791133 303.78973198 137.01001358 C303.81584425 131.88650788 303.81815609 126.76354107 303.80207634 121.63999939 C303.80025642 119.7586182 303.80700137 117.87720651 303.82289505 115.99589157 C303.8432613 113.42883891 303.83286082 110.86368851 303.81468201 108.29666138 C303.83448196 107.17763843 303.83448196 107.17763843 303.85468191 106.03600895 C303.79569747 102.39397186 303.37688449 100.50723426 301.15358502 97.58474207 C297.49542122 94.72363416 294.77872389 94.57426937 290.32098389 94.6454525 C289.52993051 94.6381853 288.73887713 94.63091809 287.92385244 94.62343067 C285.26247546 94.60512465 282.60252953 94.62256133 279.94116211 94.63973999 C278.01824581 94.633981 276.09533501 94.62604139 274.17243576 94.61610377 C268.88010311 94.59517669 263.58821963 94.60557231 258.29588509 94.62103486 C252.5916345 94.63232045 246.88746263 94.61489954 241.18322754 94.60113525 C230.00536894 94.57886848 218.82767794 94.58371939 207.6498127 94.59819846 C198.56767523 94.60947716 189.48558484 94.61102753 180.40344238 94.60557938 C179.11224511 94.60481321 177.82104784 94.60404705 176.49072337 94.60325766 C173.86791768 94.60165908 171.24511201 94.60003802 168.62230635 94.59839471 C144.71353428 94.58453408 120.80485758 94.59892321 96.8961007 94.62510769 C75.06374141 94.64883629 53.23152794 94.64671318 31.39916992 94.62280273 C6.8782199 94.59603765 -17.64263646 94.58550051 -42.16360092 94.60086405 C-44.77691395 94.60245685 -47.39022699 94.6040287 -50.00354004 94.60557938 C-51.28943692 94.60635075 -52.57533381 94.60712213 -53.90019727 94.60791688 C-62.97445965 94.61223923 -72.04867041 94.6049358 -81.1229248 94.59318161 C-92.17709275 94.57917792 -103.23108311 94.58291174 -114.28523064 94.60958533 C-119.9283768 94.62275211 -125.57122657 94.62782707 -131.21437073 94.61133957 C-136.3760873 94.59648641 -141.53723159 94.60455164 -146.69889593 94.63122733 C-148.57028431 94.63683199 -150.44172062 94.63392767 -152.3130784 94.62184839 C-154.84977471 94.60672519 -157.38449009 94.62214949 -159.92108154 94.6454525 C-160.65414221 94.63374667 -161.38720288 94.62204084 -162.14247751 94.60998029 C-167.37613172 94.70661706 -169.65712623 96.1439564 -172.80004883 100.2746582 Z M50.19995117 311.2746582 C48.4511891 314.77019752 47.94529249 317.63738792 47.92529297 321.52050781 C47.91576096 322.54184311 47.90622894 323.56317841 47.89640808 324.61546326 C47.89731949 325.70827103 47.8982309 326.8010788 47.89916992 327.92700195 C47.8948848 329.05989151 47.89059967 330.19278107 47.88618469 331.36000061 C47.88044827 333.75301445 47.87993605 336.14604572 47.88427734 338.5390625 C47.88743667 342.19537161 47.86397066 345.85087098 47.83862305 349.50708008 C47.8363499 351.83455302 47.83564663 354.16202813 47.83666992 356.48950195 C47.82746017 357.58028549 47.81825043 358.67106903 47.8087616 359.79490662 C47.8424624 365.33788465 47.9541542 369.54177839 51.19995117 374.2746582 C55.42451591 376.96442695 60.2809513 376.60698065 65.13745117 376.5871582 C66.31597656 376.61132812 66.31597656 376.61132812 67.51831055 376.63598633 C72.43847788 376.64010362 76.04273973 376.18787966 80.19995117 373.2746582 C81.94871324 369.77911888 82.45460986 366.91192849 82.47460938 363.02880859 C82.48414139 362.0074733 82.4936734 360.986138 82.50349426 359.93385315 C82.50258286 358.84104538 82.50167145 357.74823761 82.50073242 356.62231445 C82.50716011 354.92298012 82.50716011 354.92298012 82.51371765 353.1893158 C82.51945407 350.79630196 82.51996629 348.40327068 82.515625 346.01025391 C82.51246568 342.35394479 82.53593168 338.69844542 82.5612793 335.04223633 C82.56355244 332.71476339 82.56425571 330.38728828 82.56323242 328.05981445 C82.57244217 326.96903091 82.58165192 325.87824738 82.59114075 324.75440979 C82.55743995 319.21143176 82.44574814 315.00753802 79.19995117 310.2746582 C74.97538643 307.58488946 70.11895105 307.94233575 65.26245117 307.9621582 C64.08392578 307.93798828 64.08392578 307.93798828 62.8815918 307.91333008 C57.96142446 307.90921278 54.35716262 308.36143675 50.19995117 311.2746582 Z M-155.80004883 321.2746582 C-155.89347745 336.59079556 -155.96402078 351.90691977 -156.00729752 367.22327805 C-156.02792554 374.33490269 -156.05605041 381.44635031 -156.10180664 388.55786133 C-156.14592329 395.41781548 -156.16917091 402.27758538 -156.1795578 409.13767242 C-156.18696219 411.75801747 -156.20142073 414.37835217 -156.22296906 416.99861908 C-156.25190508 420.66214461 -156.25600878 424.32490442 -156.25415039 427.98852539 C-156.26853149 429.07753143 -156.2829126 430.16653748 -156.29772949 431.2885437 C-156.37715473 436.98158789 -156.37715473 436.98158789 -153.89666748 441.9175415 C-149.99404416 444.44366388 -147.53302379 444.40160756 -142.85245037 444.40608597 C-141.76223478 444.40916492 -141.76223478 444.40916492 -140.64999464 444.41230607 C-138.18955395 444.41800662 -135.72916871 444.41651508 -133.26872253 444.4151001 C-131.49689507 444.41768199 -129.72506819 444.42069465 -127.95324212 444.4241035 C-123.06473424 444.43219747 -118.17624102 444.4339644 -113.28772724 444.43470097 C-108.02312821 444.43654736 -102.75853687 444.44409258 -97.49394226 444.45083618 C-85.97343226 444.46443694 -74.45292574 444.4704469 -62.93240905 444.47484684 C-55.74384662 444.47760626 -48.55528553 444.48184306 -41.36672401 444.48635101 C-21.47772779 444.49854585 -1.58873266 444.50884481 18.30026722 444.5122261 C20.2108844 444.51255545 20.2108844 444.51255545 22.1600999 444.51289146 C24.07538111 444.51321887 24.07538111 444.51321887 26.02935487 444.5135529 C28.61690064 444.51399638 31.20444642 444.51444294 33.79199219 444.51489258 C35.71727488 444.51522472 35.71727488 444.51522472 37.68145218 444.51556358 C58.48724551 444.51951305 79.29300384 444.53697068 100.09878365 444.5602521 C121.44141672 444.5839422 142.78403221 444.59642688 164.12667865 444.59759402 C176.1172 444.59851209 188.10767576 444.60429751 200.09818459 444.62241364 C210.3069668 444.63778304 220.51568933 444.64295382 230.7244809 444.63467553 C235.93616997 444.63075782 241.14773874 444.63175307 246.35941315 444.64573288 C251.12697187 444.6584048 255.89431909 444.6573337 260.66187724 444.64514217 C262.39002619 444.64317347 264.11818978 444.64631723 265.8463181 444.65498653 C268.18941472 444.6660001 270.53175446 444.65864774 272.87482929 444.646595 C274.17808448 444.64719209 275.48133967 444.64778918 276.82408744 444.64840436 C280.4370394 444.24840986 282.32762237 443.46062674 285.19995117 441.2746582 C286.41950233 438.83555588 286.32310003 437.28088694 286.32020569 434.55441284 C286.32158035 433.55879333 286.32295502 432.56317383 286.32437134 431.53738403 C286.32077606 430.44118744 286.31718079 429.34499084 286.31347656 428.21557617 C286.3136956 426.4887561 286.3136956 426.4887561 286.31391907 424.72705078 C286.31322021 420.90696351 286.30542907 417.0869245 286.29760742 413.2668457 C286.29574315 410.62411526 286.29431929 407.98138447 286.2933197 405.33865356 C286.29020866 399.08425197 286.28199831 392.82986781 286.27197021 386.5754739 C286.26080205 379.45585561 286.25529685 372.33623649 286.25027478 365.21661162 C286.23981552 350.56928482 286.22222045 335.92197175 286.19995117 321.2746582 C275.87223619 321.86358046 265.70396055 323.04339448 255.4675293 324.48364258 C253.83980669 324.70915933 252.21202785 324.93427048 250.584198 325.15901184 C246.20814585 325.76435119 241.8329015 326.37535032 237.4577961 326.9874897 C232.86200314 327.62954421 228.26549361 328.26642852 223.66906738 328.90393066 C215.96246554 329.97352411 208.25633696 331.04647065 200.55053711 332.12182617 C189.68932906 333.63751548 178.82725489 335.14692451 167.96501255 336.65518093 C159.51190101 337.82916878 151.05904013 339.00495966 142.60620117 340.1809082 C141.70243052 340.30661131 140.79865986 340.43231441 139.86750221 340.56182671 C134.67323053 341.28436636 129.47908445 342.0077972 124.28512955 342.7326107 C122.71382042 342.95177496 121.14247383 343.17067091 119.57108688 343.3892765 C117.42370809 343.68807551 115.27647278 343.98788536 113.12927246 344.28796387 C111.9288456 344.45535316 110.72841873 344.62274246 109.4916153 344.79520416 C106.38639191 345.2475018 103.29307906 345.74646992 100.19995117 346.2746582 C100.18013184 346.92426514 100.1603125 347.57387207 100.13989258 348.24316406 C100.04367185 351.23318342 99.93439218 354.22259468 99.82495117 357.2121582 C99.79401367 358.23374023 99.76307617 359.25532227 99.73120117 360.30786133 C99.36610827 369.83070124 98.632022 378.797784 92.19995117 386.2746582 C84.45473759 392.93757119 75.03867381 393.61547718 65.19995117 393.5246582 C63.94311523 393.53625977 63.94311523 393.53625977 62.66088867 393.5480957 C53.65171315 393.52020352 45.21621531 392.31048369 38.19995117 386.2746582 C31.09019146 378.01001366 30.8910073 367.64859477 30.57495117 357.2121582 C30.5362793 356.15577148 30.49760742 355.09938477 30.45776367 354.01098633 C30.36442024 351.43237412 30.27863865 348.85375213 30.19995117 346.2746582 C-13.48173296 340.06105873 -57.17148491 333.90619291 -100.88204956 327.89877319 C-105.11791226 327.31658233 -109.35351204 326.73253208 -113.58889771 326.1468811 C-118.59878126 325.45431985 -123.60920729 324.76582783 -128.62009048 324.0805378 C-130.46693618 323.82734821 -132.31359828 323.57281529 -134.16006088 323.31684685 C-136.68856129 322.96663208 -139.21770166 322.62146747 -141.74707031 322.27758789 C-142.48046411 322.17485471 -143.2138579 322.07212152 -143.96947575 321.96627522 C-147.94313936 321.43215814 -151.79144585 321.17401623 -155.80004883 321.2746582 Z " fill="#000000" transform="translate(190.800048828125,24.725341796875)"/>
</svg>
